<?xml version="1.0" standalone="no"?>
<!DOCTYPE svg PUBLIC "-//W3C//DTD SVG 20010904//EN"
 "http://www.w3.org/TR/2001/REC-SVG-20010904/DTD/svg10.dtd">
<svg version="1.0" xmlns="http://www.w3.org/2000/svg"
 width="700.000000pt" height="700.000000pt" viewBox="0 0 700.000000 700.000000"
 preserveAspectRatio="xMidYMid meet">
<metadata>
Created by potrace 1.14, written by Peter Selinger 2001-2017
</metadata>
<g transform="translate(0.000000,700.000000) scale(0.100000,-0.100000)"
fill="#000000" stroke="none">
<path d="M2816 5462 c-4 -7 -2 -12 4 -12 21 0 209 -98 280 -146 124 -83 223
-195 261 -295 l18 -47 -92 42 c-563 262 -1033 165 -1389 -285 -62 -79 -180
-260 -173 -267 1 -2 45 26 97 61 169 117 335 189 513 222 113 21 335 17 443
-9 l72 -18 -82 -40 c-224 -108 -381 -261 -473 -462 -36 -77 -70 -184 -62 -193
3 -3 32 11 64 30 273 165 576 256 932 281 l74 5 -79 -82 c-165 -171 -258 -291
-384 -497 -78 -126 -244 -452 -273 -535 -7 -22 -46 -125 -84 -230 -39 -104
-89 -253 -112 -330 -43 -150 -121 -460 -121 -486 0 -13 22 -7 112 28 201 80
501 145 731 159 50 3 107 7 125 10 l32 5 0 67 c0 87 26 437 45 622 30 283 89
599 137 745 17 50 37 115 45 145 8 30 39 107 70 170 l55 115 50 -55 c117 -131
260 -387 339 -607 18 -51 36 -93 40 -93 8 0 55 160 70 238 7 38 10 113 7 195
-5 124 -20 196 -65 314 -6 16 33 10 126 -19 165 -50 372 -199 547 -392 38 -42
72 -76 75 -76 19 0 -40 296 -82 416 -104 299 -290 488 -566 576 -56 18 -103
36 -103 40 0 4 30 38 68 75 100 101 240 163 369 163 29 0 53 4 53 10 0 15
-147 86 -225 108 -175 51 -333 30 -474 -63 -29 -20 -54 -34 -55 -33 -1 2 -18
37 -39 78 -47 97 -100 157 -190 217 -130 87 -298 128 -567 140 -114 4 -159 3
-164 -5z"/>
</g>
</svg>
